<?xml version="1.0" standalone="no"?>
<!DOCTYPE svg PUBLIC "-//W3C//DTD SVG 20010904//EN"
 "http://www.w3.org/TR/2001/REC-SVG-20010904/DTD/svg10.dtd">
<svg version="1.0" xmlns="http://www.w3.org/2000/svg"
 width="385.000000pt" height="362.000000pt" viewBox="0 0 385.000000 362.000000"
 preserveAspectRatio="xMidYMid meet">

<g transform="translate(0.000000,362.000000) scale(0.100000,-0.100000)"
fill="#000000" stroke="none">
<path d="M1735 3379 c-360 -29 -733 -205 -995 -468 -306 -308 -470 -714 -472
-1169 -1 -157 5 -204 43 -357 43 -168 49 -185 115 -321 42 -87 126 -230 143
-244 3 -3 22 -27 41 -55 70 -100 284 -287 419 -367 89 -52 237 -125 286 -141
324 -106 524 -125 804 -77 273 46 514 146 722 302 49 37 97 69 107 72 9 4 26
20 38 36 11 16 36 40 54 53 19 12 40 33 47 47 6 13 28 38 47 56 20 18 36 40
36 48 0 8 17 35 38 60 49 59 112 160 112 178 0 9 11 32 25 52 14 20 25 47 25
59 0 12 11 39 25 59 15 23 25 51 25 73 0 20 6 49 14 63 20 37 46 210 53 351 9
176 -21 413 -65 521 -5 14 -16 44 -22 67 -7 23 -17 40 -21 37 -5 -3 -9 0 -9 6
0 6 -4 9 -10 5 -15 -9 -51 71 -45 102 3 19 3 22 -3 10 -6 -14 -14 -4 -41 50
-18 38 -54 99 -80 137 -30 46 -42 71 -33 74 13 4 17 42 4 42 -4 0 -14 -6 -20
-12 -10 -10 -20 -5 -47 27 -19 22 -34 48 -35 58 0 9 -5 17 -11 17 -10 0 -201
167 -207 182 -2 4 -8 8 -13 8 -6 0 -42 22 -82 49 -104 69 -198 118 -312 162
-92 35 -97 37 -56 36 24 -1 45 -6 47 -12 3 -6 23 -10 44 -9 22 1 40 -1 40 -5
0 -3 12 -7 26 -7 l26 -2 -23 16 c-12 8 -38 16 -58 18 -52 3 -53 3 -47 13 7 11
-39 31 -75 31 -16 0 -41 7 -54 16 -23 15 -53 21 -210 44 -101 15 -245 18 -360
9z m343 -71 c73 -10 93 -16 98 -30 3 -10 10 -16 15 -12 5 3 7 10 3 15 -7 12
79 -6 136 -28 8 -4 18 -5 23 -5 4 1 7 -2 7 -8 0 -12 3 -13 -45 4 -38 14 -41
13 -53 -7 -12 -22 -12 -22 -10 -1 2 11 -1 22 -7 22 -5 1 -10 -4 -10 -10 0 -7
-8 -13 -17 -12 -52 2 -56 4 -51 23 4 16 -2 20 -38 26 -33 6 -45 4 -54 -9 -8
-10 -27 -16 -55 -16 -39 0 -42 2 -38 23 4 20 1 22 -44 21 -30 -1 -54 -7 -61
-17 -7 -8 -31 -17 -54 -20 -37 -4 -43 -2 -43 13 0 10 6 20 13 23 6 3 -8 2 -33
0 -52 -6 -83 -20 -75 -33 5 -9 -7 -14 -62 -25 -36 -7 -45 8 -20 34 10 11 9 12
-3 5 -8 -5 -17 -9 -20 -10 -66 -12 -80 -18 -80 -34 0 -12 -14 -23 -45 -33 -41
-14 -46 -14 -54 1 -8 14 -14 14 -50 3 -33 -9 -41 -16 -39 -32 4 -28 -71 -63
-87 -41 -16 21 -88 -15 -81 -41 6 -26 -68 -75 -88 -57 -23 18 -79 -17 -72 -46
4 -16 -4 -29 -33 -52 -34 -27 -41 -29 -52 -16 -11 13 -16 11 -40 -12 -19 -19
-27 -34 -24 -48 8 -31 -50 -90 -74 -77 -14 8 -23 4 -40 -20 -16 -22 -20 -34
-13 -41 8 -8 2 -24 -19 -55 -25 -35 -33 -41 -48 -34 -14 8 -21 4 -35 -19 -10
-17 -14 -39 -11 -53 9 -34 -31 -100 -56 -92 -25 8 -54 -57 -38 -83 16 -25 -13
-92 -40 -92 -12 0 -23 -10 -29 -27 -5 -16 -13 -36 -17 -46 -5 -13 -3 -16 8
-11 22 8 26 -6 13 -56 -8 -34 -16 -45 -31 -45 -27 0 -43 -72 -19 -90 13 -9 15
-20 9 -55 -5 -28 -10 -38 -15 -29 -5 7 -7 16 -4 20 2 4 -6 9 -17 12 -15 4 -19
2 -15 -9 3 -9 1 -12 -4 -9 -6 3 -10 20 -10 37 l0 31 19 -22 c20 -23 41 -21 41
4 0 8 -8 12 -19 10 -14 -2 -20 3 -24 20 -2 15 0 22 6 18 7 -4 8 6 4 26 -6 26
-3 36 14 50 19 15 20 20 9 40 -10 19 -10 25 1 32 7 4 14 18 14 31 1 13 7 33
14 46 6 12 9 27 6 32 -3 6 -2 10 3 10 6 0 13 7 16 16 3 8 2 12 -4 9 -20 -12
55 144 122 253 91 149 222 296 362 404 108 83 222 152 238 142 6 -4 8 -3 5 3
-7 11 100 65 135 67 39 3 78 18 72 28 -3 5 11 2 33 -7 l38 -15 -25 21 c-14 11
-19 18 -12 14 7 -3 28 -1 46 5 19 6 47 13 63 16 15 3 30 9 31 15 2 5 7 7 12 4
4 -2 47 2 96 9 114 18 313 20 432 4z m-45 -154 c2 -14 2 -22 -1 -19 -3 3 -13
-9 -23 -25 -23 -37 -51 -38 -78 -4 -25 32 -27 61 -4 86 23 25 34 23 23 -6 -5
-13 -7 -32 -5 -42 2 -11 4 -27 4 -37 1 -12 7 -17 19 -15 23 4 36 86 16 109
-25 28 -15 30 15 3 16 -14 31 -37 34 -50z m270 63 c3 -8 -1 -14 -8 -14 -7 0
-11 6 -8 14 3 7 6 13 8 13 2 0 5 -6 8 -13z m-592 -21 c-13 -14 -18 -25 -11
-28 6 -2 13 -18 15 -36 2 -18 7 -37 10 -42 10 -16 -7 -12 -27 7 -33 30 -14
123 25 123 6 0 0 -11 -12 -24z m70 -12 c13 -14 22 -29 20 -32 -2 -4 -12 -20
-21 -36 -9 -16 -23 -32 -30 -34 -12 -4 -13 -2 -3 9 17 21 19 84 4 103 -22 26
4 18 30 -10z m394 6 c-3 -5 4 -10 15 -10 15 0 20 -5 17 -14 -15 -40 -27 -98
-22 -106 7 -12 -12 -12 -40 0 -14 6 -15 9 -5 9 9 1 16 9 17 19 1 15 11 103 12
110 1 1 4 2 7 2 3 0 2 -4 -1 -10z m222 -6 c-3 -3 -12 -4 -19 -1 -8 3 -5 6 6 6
11 1 17 -2 13 -5z m-893 -31 c3 -10 8 -35 12 -56 7 -44 34 -48 44 -7 l6 25 6
-27 c5 -26 2 -29 -34 -39 -22 -6 -41 -9 -43 -7 -1 2 -7 26 -13 53 -9 44 -9 48
4 31 15 -21 18 -18 8 8 -3 9 -12 16 -20 16 -8 0 -14 5 -14 10 0 17 38 11 44
-7z m744 5 c16 -16 15 -58 0 -59 -10 0 -10 -2 -1 -5 7 -3 9 -12 6 -20 -3 -8 1
-14 8 -14 12 0 12 -2 0 -9 -7 -5 -10 -14 -7 -20 4 -6 2 -11 -3 -11 -6 0 -11 7
-11 15 0 9 -9 15 -21 15 -16 0 -19 3 -12 13 21 26 33 79 22 93 -14 17 2 19 19
2z m239 0 c14 -18 13 -52 -1 -38 -15 15 -30 12 -17 -4 10 -12 8 -13 -8 -9 -12
3 -18 10 -14 16 3 6 1 7 -5 3 -17 -10 -15 -26 3 -26 8 0 15 -4 15 -10 0 -5 -5
-10 -10 -10 -6 0 -5 -6 2 -14 15 -17 29 -11 22 9 -6 15 12 15 35 1 11 -7 13
-5 8 7 -8 20 17 23 33 5 52 -62 52 -63 35 -66 -23 -5 -50 19 -33 29 10 7 9 12
-6 26 -18 17 -19 17 -13 0 5 -12 3 -16 -5 -11 -8 5 -9 2 -4 -11 5 -15 4 -16
-9 -5 -17 14 -50 6 -40 -10 3 -5 14 -10 25 -10 10 0 20 -7 24 -15 3 -8 1 -15
-4 -15 -6 0 -10 5 -10 10 0 6 -5 10 -11 10 -5 0 -7 -6 -4 -12 4 -7 -3 -2 -15
12 -21 24 -22 24 -36 5 -8 -10 -15 -25 -15 -32 -3 -27 -4 -32 -13 -40 -5 -4
-6 -3 -2 4 3 7 -2 14 -14 18 -19 6 -20 9 -7 29 9 13 14 42 13 68 -1 26 1 46 4
46 18 -2 23 4 10 12 -10 6 -2 8 28 7 23 -2 42 1 42 5 0 4 -7 8 -15 8 -8 0 -15
5 -15 10 0 14 16 12 27 -2z m-1160 -69 c6 -6 9 -18 6 -25 -3 -8 1 -14 10 -14
20 0 27 -20 15 -42 -10 -21 -28 -24 -28 -4 0 7 -7 19 -15 26 -12 10 -13 16 -3
28 10 13 10 14 1 8 -7 -4 -13 -2 -13 3 0 6 6 11 13 12 6 1 1 5 -13 9 -21 7
-22 8 -4 9 11 1 25 -4 31 -10z m-17 -109 c0 -15 -31 -19 -36 -5 -4 8 -9 13
-13 11 -3 -2 -7 6 -7 17 -4 48 -9 67 -19 68 -5 0 -1 4 10 8 17 7 23 1 43 -42
12 -27 22 -53 22 -57z m1350 79 c0 8 3 12 6 8 3 -3 3 -11 -1 -17 -5 -8 -11 -7
-22 2 -14 11 -15 10 -9 -9 7 -23 -8 -41 -20 -22 -4 8 -3 9 4 5 7 -4 12 -2 12
3 0 6 -7 11 -15 11 -12 0 -12 3 3 18 15 16 18 16 29 2 10 -12 12 -12 13 -1z
m-316 -15 c5 -14 4 -15 -9 -4 -17 14 -19 20 -6 20 5 0 12 -7 15 -16z m46 -14
c0 -5 -7 -7 -15 -4 -8 4 -15 8 -15 10 0 2 7 4 15 4 8 0 15 -4 15 -10z m298
-35 c-3 -3 -9 2 -12 12 -6 14 -5 15 5 6 7 -7 10 -15 7 -18z m-98 6 c0 -4 -11
-6 -25 -3 -14 2 -25 6 -25 8 0 2 11 4 25 4 14 0 25 -4 25 -9z m-550 -16 c7 -8
9 -15 6 -15 -4 0 -14 7 -22 15 -9 8 -11 15 -6 15 5 0 15 -7 22 -15z m407 -17
c-3 -7 -5 -2 -5 12 0 14 2 19 5 13 2 -7 2 -19 0 -25z m33 17 c7 -9 8 -15 2
-15 -5 0 -12 7 -16 15 -3 8 -4 15 -2 15 2 0 9 -7 16 -15z m170 0 c7 -9 8 -15
2 -15 -5 0 -12 7 -16 15 -3 8 -4 15 -2 15 2 0 9 -7 16 -15z m-400 -47 c0 -6
-9 1 -20 15 -11 14 -20 29 -20 34 1 11 40 -37 40 -49z m40 42 c0 -5 -5 -10
-11 -10 -5 0 -7 5 -4 10 3 6 8 10 11 10 2 0 4 -4 4 -10z m231 -12 c11 -21 11
-22 -4 -9 -10 7 -17 17 -17 22 0 15 9 10 21 -13z m-379 -47 c10 0 10 2 1 6 -7
2 -13 11 -13 18 0 7 -6 16 -12 18 -10 4 -10 6 -1 6 6 1 14 -3 18 -9 3 -5 13
-7 23 -4 13 5 14 4 3 -4 -10 -7 -10 -14 -2 -30 12 -23 15 -43 3 -26 -4 6 -20
14 -35 18 -26 6 -28 5 -22 -14 4 -13 2 -20 -6 -20 -7 0 -10 3 -6 6 3 4 0 13
-8 21 -8 8 -15 20 -15 26 0 8 3 7 9 -2 5 -7 14 -10 20 -6 8 5 6 12 -9 25 -11
9 -20 21 -20 26 0 5 14 -6 30 -23 16 -18 35 -33 42 -32z m68 27 c0 -5 -7 -3
-15 6 -8 8 -15 18 -15 22 0 3 7 1 15 -6 8 -7 15 -17 15 -22z m475 3 c-4 -13 0
-23 12 -29 14 -9 15 -13 4 -26 -16 -19 -38 -21 -43 -4 -2 6 3 26 11 45 17 36
26 44 16 14z m69 4 c-4 -8 -11 -15 -16 -15 -6 0 -5 6 2 15 7 8 14 15 16 15 2
0 1 -7 -2 -15z m-464 -30 c0 -5 -5 -3 -10 5 -5 8 -10 20 -10 25 0 6 5 3 10 -5
5 -8 10 -19 10 -25z m300 15 c0 -11 -2 -20 -4 -20 -2 0 -6 9 -9 20 -3 11 -1
20 4 20 5 0 9 -9 9 -20z m255 -21 c-4 -10 -1 -28 5 -40 10 -17 9 -20 -1 -14
-9 6 -11 3 -6 -8 4 -12 2 -14 -10 -10 -13 5 -15 2 -9 -13 5 -12 4 -15 -2 -9
-16 16 -42 85 -33 85 5 0 8 8 7 18 -1 11 5 16 18 14 13 -2 16 1 10 10 -6 10
-4 10 9 -1 11 -8 15 -21 12 -32z m-805 21 c0 -5 -5 -10 -11 -10 -5 0 -7 5 -4
10 3 6 8 10 11 10 2 0 4 -4 4 -10z m-983 -22 c-3 -8 -6 -5 -6 6 -1 11 2 17 5
13 3 -3 4 -12 1 -19z m1153 -30 c0 -5 -6 -3 -14 4 -8 7 -12 15 -10 17 2 2 0 9
-4 16 -4 6 1 2 11 -8 9 -11 17 -23 17 -29z m-1126 9 c4 -17 3 -26 -3 -23 -5 3
-12 0 -14 -6 -3 -8 -6 -6 -6 5 -1 9 -5 17 -11 17 -5 0 -2 8 8 18 9 10 17 18
18 18 1 -1 4 -14 8 -29z m903 7 c2 -13 1 -15 -4 -4 -3 8 -11 19 -17 23 -7 6
-6 7 4 4 8 -2 16 -12 17 -23z m109 -43 c1 -1 12 4 24 12 13 9 17 17 10 20 -6
3 -6 5 2 3 20 -4 21 -26 1 -27 -10 -1 15 -5 56 -9 41 -5 95 -14 120 -21 51
-14 168 -73 191 -96 13 -13 11 -14 -19 -9 -48 7 -166 -19 -224 -49 -47 -24
-52 -25 -139 -15 -50 6 -93 8 -96 5 -9 -9 6 -17 33 -17 14 0 25 -5 25 -10 0
-6 7 -5 15 2 9 7 15 8 15 2 0 -16 -26 -22 -40 -9 -10 9 -11 7 -6 -13 6 -25 6
-25 -5 -2 -7 12 -16 22 -21 22 -11 0 -10 -7 3 -33 9 -19 8 -20 -3 -5 -7 9 -18
25 -25 35 -11 17 -12 16 -10 -6 1 -14 -4 -26 -13 -28 -11 -3 -12 -2 -2 5 7 5
10 16 6 25 -8 23 -28 22 -20 0 5 -15 4 -15 -9 1 -19 25 -30 14 -15 -14 18 -33
7 -33 -12 1 -17 28 -17 29 7 35 14 3 32 4 40 1 8 -4 17 -2 20 3 15 24 -217 2
-422 -40 -204 -42 -203 -42 -148 -21 28 11 45 20 38 20 -6 1 -24 -4 -38 -9
-17 -7 -32 -7 -43 0 -15 8 -15 9 2 10 11 0 119 34 240 75 122 41 241 79 265
85 58 15 40 32 -19 19 -25 -5 -80 -21 -124 -35 -43 -14 -80 -23 -83 -21 -2 3
42 19 99 37 57 17 110 34 118 37 8 3 33 8 55 10 48 5 50 7 30 26 -19 20 -21
45 -2 28 10 -8 17 -7 25 1 7 7 12 8 12 3 0 -6 7 -18 15 -29 11 -15 16 -16 28
-5 15 14 11 49 -5 49 -5 0 -6 5 -2 11 3 6 14 -3 26 -23 11 -18 22 -35 24 -37z
m154 16 c0 -4 -6 -2 -14 5 -8 7 -12 16 -9 21 2 4 -1 7 -7 7 -6 0 -8 5 -4 11 6
11 33 -24 34 -44z m220 33 c-8 -5 -18 -6 -24 -3 -5 4 -1 10 10 13 24 9 34 2
14 -10z m-445 -1 c11 -16 1 -19 -13 -3 -7 8 -8 14 -3 14 5 0 13 -5 16 -11z
m245 1 c0 -5 -5 -10 -11 -10 -5 0 -7 5 -4 10 3 6 8 10 11 10 2 0 4 -4 4 -10z
m-375 -20 c26 -29 15 -32 -13 -4 -12 13 -19 24 -14 24 5 0 17 -9 27 -20z m30
9 c11 -16 1 -19 -13 -3 -7 8 -8 14 -3 14 5 0 13 -5 16 -11z m655 -22 c10 -4 7
-6 -7 -6 -13 -1 -23 1 -23 3 0 2 -3 13 -6 23 -6 16 -5 17 7 2 8 -9 21 -19 29
-22z m-530 3 c0 -5 -5 -10 -11 -10 -5 0 -7 5 -4 10 3 6 8 10 11 10 2 0 4 -4 4
-10z m-103 -22 c-3 -8 -6 -5 -6 6 -1 11 2 17 5 13 3 -3 4 -12 1 -19z m591 -13
c-3 -3 -9 2 -12 12 -6 14 -5 15 5 6 7 -7 10 -15 7 -18z m252 15 c0 -5 -2 -10
-4 -10 -3 0 -8 5 -11 10 -3 6 -1 10 4 10 6 0 11 -4 11 -10z m100 -14 c0 -8 9
-16 20 -19 11 -3 20 -1 20 4 0 15 19 10 41 -9 12 -12 17 -25 13 -35 -7 -20
-20 -22 -30 -5 -4 6 -3 8 3 5 6 -4 14 0 17 8 4 13 2 14 -14 5 -14 -7 -20 -7
-20 0 0 5 5 10 11 10 5 0 7 5 3 11 -11 18 -24 -12 -17 -40 4 -18 3 -22 -7 -16
-9 6 -10 1 -5 -16 15 -47 -5 -11 -30 55 -14 37 -21 65 -15 61 5 -3 10 -12 10
-19z m-385 -6 c-3 -5 -12 -10 -18 -10 -7 0 -6 4 3 10 19 12 23 12 15 0z m225
-37 c0 -25 -15 -12 -17 14 -1 19 1 22 8 12 5 -8 9 -20 9 -26z m77 7 c10 -28
10 -30 -10 -30 -16 0 -18 3 -8 9 10 7 11 13 2 30 -7 11 -8 21 -4 21 5 0 14
-13 20 -30z m-257 10 c0 -5 -5 -10 -11 -10 -5 0 -7 5 -4 10 3 6 8 10 11 10 2
0 4 -4 4 -10z m308 -21 c-3 -8 -7 -3 -11 10 -4 17 -3 21 5 13 5 -5 8 -16 6
-23z m-78 11 c0 -5 -2 -10 -4 -10 -3 0 -8 5 -11 10 -3 6 -1 10 4 10 6 0 11 -4
11 -10z m60 -20 c6 -11 7 -20 2 -20 -6 0 -12 9 -15 20 -3 11 -3 20 -1 20 2 0
8 -9 14 -20z m-160 -20 c0 -5 -5 -10 -11 -10 -5 0 -7 5 -4 10 3 6 8 10 11 10
2 0 4 -4 4 -10z m39 -33 c1 -5 -3 -5 -9 -2 -5 3 -10 16 -9 28 0 21 1 21 9 2 5
-11 9 -24 9 -28z m51 18 c0 -8 -2 -15 -4 -15 -2 0 -6 7 -10 15 -3 8 -1 15 4
15 6 0 10 -7 10 -15z m130 -6 c0 -6 -6 -17 -14 -24 -12 -12 -15 -11 -19 6 -4
16 -2 19 10 15 11 -5 13 -2 9 9 -3 9 -2 13 4 10 6 -3 10 -11 10 -16z m-1626
-15 c5 -14 4 -15 -9 -4 -17 14 -19 20 -6 20 5 0 12 -7 15 -16z m371 6 c-27
-12 -43 -12 -25 0 8 5 22 9 30 9 10 0 8 -3 -5 -9z m982 -22 c-3 -7 -5 -2 -5
12 0 14 2 19 5 13 2 -7 2 -19 0 -25z m373 17 c0 -17 -25 -20 -35 -5 -4 6 1 7
11 3 12 -4 15 -3 10 5 -4 7 -2 12 3 12 6 0 11 -7 11 -15z m-306 -10 c3 -8 1
-15 -4 -15 -6 0 -10 7 -10 15 0 8 2 15 4 15 2 0 6 -7 10 -15z m166 -20 c0 -14
-2 -25 -4 -25 -2 0 -6 11 -8 25 -3 14 -1 25 3 25 5 0 9 -11 9 -25z m103 -5 c3
-11 1 -18 -4 -14 -5 3 -9 12 -9 20 0 20 7 17 13 -6z m67 -7 c0 -10 5 -13 18
-8 28 11 34 11 38 -3 1 -7 0 -8 -2 -3 -3 6 -12 7 -20 4 -7 -3 -11 -10 -8 -15
4 -6 -1 -6 -14 1 -11 6 -22 20 -25 31 -3 11 -1 18 4 14 5 -3 9 -12 9 -21z
m-207 9 c-6 -4 -13 -21 -16 -37 -4 -27 -4 -27 -6 8 -1 29 3 37 17 37 11 0 13
-3 5 -8z m167 -2 c0 -5 -2 -10 -4 -10 -3 0 -8 5 -11 10 -3 6 -1 10 4 10 6 0
11 -4 11 -10z m-500 -10 c0 -5 -5 -10 -11 -10 -5 0 -7 5 -4 10 3 6 8 10 11 10
2 0 4 -4 4 -10z m400 -14 c0 -20 -4 -23 -22 -18 -19 5 -20 7 -5 10 9 2 17 10
17 18 0 8 2 14 5 14 3 0 5 -11 5 -24z m-1585 4 c3 -6 -1 -7 -9 -4 -18 7 -21
14 -7 14 6 0 13 -4 16 -10z m182 4 c-3 -3 -12 -4 -19 -1 -8 3 -5 6 6 6 11 1
17 -2 13 -5z m893 -4 c0 -5 -5 -10 -11 -10 -5 0 -7 5 -4 10 3 6 8 10 11 10 2
0 4 -4 4 -10z m227 -27 c-3 -10 -5 -4 -5 12 0 17 2 24 5 18 2 -7 2 -21 0 -30z
m108 32 c-23 -8 -85 -10 -85 -3 0 4 21 8 48 7 26 0 43 -2 37 -4z m203 -41 c-3
-27 -4 -26 -9 8 -3 22 -1 34 4 29 5 -5 7 -21 5 -37z m-62 6 c8 0 14 -4 14 -10
0 -5 -7 -7 -15 -4 -8 4 -15 1 -15 -5 0 -6 7 -11 15 -11 8 0 15 -4 15 -10 0 -5
-7 -7 -15 -4 -9 4 -16 0 -16 -7 -1 -8 -4 0 -8 16 -4 17 -5 39 -2 50 5 17 6 18
9 3 2 -10 10 -18 18 -18z m-189 -17 c-3 -10 -5 -4 -5 12 0 17 2 24 5 18 2 -7
2 -21 0 -30z m356 17 c6 -22 0 -25 -23 -10 -11 7 -11 10 -2 10 7 0 10 5 7 10
-3 6 -2 10 3 10 5 0 12 -9 15 -20z m-233 6 c0 -3 -4 -8 -10 -11 -5 -3 -10 -1
-10 4 0 6 5 11 10 11 6 0 10 -2 10 -4z m-650 -10 c0 -2 -8 -10 -17 -17 -16
-13 -17 -12 -4 4 13 16 21 21 21 13z m108 -21 c-3 -3 -9 2 -12 12 -6 14 -5 15
5 6 7 -7 10 -15 7 -18z m702 15 c0 -5 -2 -10 -4 -10 -3 0 -8 5 -11 10 -3 6 -1
10 4 10 6 0 11 -4 11 -10z m-453 -37 c-3 -10 -5 -4 -5 12 0 17 2 24 5 18 2 -7
2 -21 0 -30z m230 0 c-3 -10 -5 -4 -5 12 0 17 2 24 5 18 2 -7 2 -21 0 -30z
m-94 20 c-7 -2 -19 -2 -25 0 -7 3 -2 5 12 5 14 0 19 -2 13 -5z m175 0 c-10 -2
-28 -2 -40 0 -13 2 -5 4 17 4 22 1 32 -1 23 -4z m-1528 -27 c0 -17 -48 -38
-71 -31 -15 5 -18 2 -13 -12 5 -17 5 -17 -6 0 -11 17 -30 15 -30 -4 0 -6 5 -7
12 -3 7 4 8 3 4 -5 -6 -9 -11 -9 -22 0 -11 9 -14 8 -15 -7 0 -11 -3 -14 -6 -6
-2 6 -12 12 -20 12 -10 0 -13 -6 -9 -16 5 -14 4 -15 -9 -4 -11 9 -15 9 -15 1
0 -7 -5 -9 -11 -5 -8 4 -2 12 16 21 47 25 158 63 167 57 4 -3 8 2 8 11 0 9 5
13 10 10 6 -3 10 -12 10 -19z m1646 -22 c14 -4 23 -8 21 -11 -3 -2 -16 -1 -30
2 -24 6 -42 37 -28 50 3 4 7 -3 9 -14 2 -13 13 -23 28 -27z m57 16 c3 -11 1
-18 -4 -14 -5 3 -9 12 -9 20 0 20 7 17 13 -6z m-566 -52 c-2 -13 -4 -3 -4 22
0 25 2 35 4 23 2 -13 2 -33 0 -45z m140 30 c-3 -7 -5 -2 -5 12 0 14 2 19 5 13
2 -7 2 -19 0 -25z m351 -15 c46 -16 52 -27 23 -42 -14 -8 -20 -7 -25 4 -8 23
-82 55 -127 55 -97 0 -139 -70 -164 -278 -13 -104 -16 -208 -13 -509 2 -208 1
-364 -2 -348 -4 24 -10 30 -33 32 -22 2 -27 -2 -23 -13 3 -9 6 -20 6 -26 0 -6
7 -8 15 -4 20 7 19 -4 -2 -20 -17 -12 -16 -13 5 -14 12 0 22 -4 22 -10 0 -5 4
-10 10 -10 5 0 7 8 4 18 -5 15 -4 15 5 1 6 -9 12 -36 13 -60 3 -43 2 -44 -26
-42 -16 1 -34 7 -40 14 -8 9 -3 10 21 6 19 -4 35 -2 39 5 4 7 3 8 -4 4 -7 -4
-12 -3 -12 2 0 6 -10 8 -21 5 -20 -5 -21 -3 -15 21 5 20 2 28 -11 34 -10 4
-18 13 -19 20 -3 37 -5 42 -16 42 -6 0 -9 -3 -6 -6 4 -3 3 -18 -2 -34 -5 -18
-4 -33 3 -41 7 -8 0 -4 -14 9 -14 12 -28 19 -32 16 -16 -16 -80 157 -71 192 5
20 9 22 25 13 16 -8 19 -6 19 9 0 15 -5 18 -25 14 -14 -2 -25 -11 -26 -21 -1
-41 -18 32 -28 129 -13 122 -2 267 31 395 21 82 91 242 128 295 12 16 19 33
17 37 -3 5 8 24 24 43 16 19 29 29 29 23 0 -7 -5 -15 -10 -18 -13 -8 13 -35
34 -35 12 0 16 10 16 35 0 54 34 80 106 83 32 1 60 4 62 6 4 5 37 -5 110 -31z
m129 -12 c-1 -16 -5 -17 -19 -10 -22 12 -24 21 -3 13 11 -5 13 -2 8 12 -4 11
-3 15 5 10 6 -3 10 -15 9 -25z m-1752 9 c-4 -6 -10 -8 -15 -5 -5 3 -11 1 -15
-5 -8 -13 -25 -13 -25 -1 0 5 8 12 18 14 31 8 43 7 37 -3z m733 -15 c-3 -3 -9
2 -12 12 -6 14 -5 15 5 6 7 -7 10 -15 7 -18z m727 13 c-11 -6 -31 -20 -45 -32
-23 -20 -23 -20 -10 -1 21 29 42 45 59 45 12 -1 11 -3 -4 -12z m396 -5 c10
-11 10 -14 2 -9 -9 5 -13 -1 -13 -22 0 -16 -7 -35 -15 -42 -13 -11 -15 -7 -14
26 1 38 2 38 9 9 7 -28 8 -27 9 13 1 47 3 49 22 25z m-77 -28 c6 -42 6 -42 16
-20 7 16 9 13 9 -17 1 -21 3 -38 5 -38 2 0 11 -3 19 -6 9 -3 17 2 21 13 3 10
3 -13 0 -51 -5 -77 1 -83 16 -15 l9 44 -3 -57 c-1 -32 1 -58 5 -58 5 0 10 33
12 73 4 71 4 71 4 -13 -1 -47 -4 -98 -9 -114 -8 -32 2 -61 12 -32 3 9 6 -8 6
-39 0 -31 4 -59 9 -63 6 -4 11 -14 12 -22 15 -89 39 -200 43 -196 3 2 2 -69
-1 -160 -3 -90 -8 -166 -11 -170 -3 -3 -4 52 -3 123 l3 128 -8 -110 c-11 -151
-39 -269 -83 -342 -15 -27 -22 -31 -33 -22 -11 9 -14 6 -14 -15 0 -16 -4 -25
-10 -21 -5 3 -10 2 -10 -3 0 -6 -8 -8 -19 -5 -10 2 -24 -1 -32 -9 -8 -7 -20
-13 -26 -14 -30 -2 -34 -5 -27 -15 4 -8 9 -7 15 2 7 12 9 12 9 0 0 -7 6 -11
15 -7 10 3 7 -7 -10 -34 -14 -22 -21 -40 -16 -40 18 0 132 113 157 157 14 23
28 43 30 43 7 0 -9 -35 -32 -69 -12 -18 -21 -38 -20 -45 2 -6 1 -9 -1 -5 -2 3
-24 -14 -49 -38 -48 -44 -127 -88 -179 -98 -20 -4 -12 2 22 17 56 25 74 38 54
38 -8 0 -7 5 3 16 9 8 16 20 16 25 0 6 -7 3 -16 -5 -17 -18 -30 -20 -38 -7
-11 17 5 40 22 33 14 -5 15 -3 5 9 -9 12 -10 28 -2 70 6 30 13 228 16 441 4
329 2 405 -12 515 -25 187 -27 213 -9 220 8 3 20 0 28 -6 7 -6 16 -8 19 -4 4
3 -1 12 -11 20 -15 11 -13 12 11 1 18 -7 23 -14 16 -19 -8 -5 -5 -11 10 -18
23 -13 26 -6 21 49 -3 34 7 22 14 -15z m127 8 c12 -16 12 -17 -2 -6 -9 7 -20
9 -24 5 -5 -4 -5 -1 -1 6 9 16 11 15 27 -5z m-1199 -2 c8 11 9 11 6 1 -4 -16
-22 -18 -24 -2 -2 7 -1 6 3 -1 4 -8 8 -7 15 2z m229 -18 c1 -10 1 -22 0 -27
-1 -4 3 -14 9 -21 8 -9 8 -15 0 -20 -5 -3 -10 -11 -10 -17 0 -6 7 -5 18 3 15
13 16 12 3 -3 -7 -10 -10 -18 -6 -18 4 0 3 -6 -2 -12 -6 -7 -11 -94 -12 -198
-1 -102 -4 -187 -7 -189 -2 -2 -5 47 -6 110 0 63 -3 98 -6 79 l-4 -35 -18 45
c-25 61 -25 105 0 123 11 8 23 29 26 48 8 39 1 35 -43 -28 l-29 -41 -35 46
c-19 25 -55 59 -81 75 l-47 29 -103 -23 c-57 -13 -95 -25 -85 -27 17 -3 18
-17 14 -175 -2 -95 -7 -183 -12 -196 -6 -17 -5 -22 3 -17 9 5 13 -21 14 -96 2
-57 5 30 8 192 l5 295 3 -307 2 -306 33 15 c73 35 142 124 183 233 7 19 13 28
13 20 1 -23 -56 -138 -90 -181 -17 -22 -26 -39 -21 -39 14 0 37 30 75 98 l35
64 -2 -156 c-1 -143 -2 -156 -19 -156 -10 0 -15 -5 -12 -10 4 -6 11 -7 17 -4
7 5 8 2 3 -6 -5 -9 -18 -2 -44 26 -19 22 -36 43 -36 49 0 16 -130 18 -143 2
-7 -8 -14 -63 -17 -131 -4 -119 -13 -146 -49 -146 -21 0 -29 -17 -11 -24 9 -3
24 3 35 14 20 20 20 20 18 -25 -1 -25 -5 -48 -10 -51 -4 -3 -8 0 -8 6 0 6 -5
8 -10 5 -7 -4 -8 -11 -1 -18 6 -8 4 -17 -7 -27 -14 -13 -15 -12 -10 2 9 23 -2
30 -19 12 -8 -8 -19 -12 -24 -9 -5 4 -9 -1 -9 -9 0 -9 -8 -16 -17 -15 -11 0
-13 3 -5 6 19 8 14 33 -7 33 -21 0 -36 26 -21 35 17 11 11 37 -10 42 -11 3
-20 9 -20 14 0 17 -28 9 -33 -8 -3 -10 -5 -1 -6 19 -1 24 4 40 14 45 18 11 87
4 80 -7 -3 -4 0 -22 6 -39 10 -29 12 -30 25 -14 11 15 11 20 0 28 -14 11 -15
42 -3 63 6 8 3 10 -7 6 -11 -4 -16 0 -16 10 0 9 6 16 13 17 6 0 -3 7 -20 15
-18 8 -33 19 -33 24 0 6 -9 10 -20 10 -11 0 -20 -4 -20 -10 0 -5 7 -7 15 -3
13 4 16 -2 14 -36 -3 -46 -6 -48 -26 -23 -13 16 -14 15 -8 -5 3 -12 1 -24 -5
-28 -7 -4 -10 65 -10 217 0 148 -4 218 -10 208 -8 -12 -10 -10 -10 8 0 13 4
20 10 17 15 -9 13 98 -2 113 -9 9 -9 12 1 12 21 0 11 189 -12 223 -12 19 -13
27 -4 31 6 4 -15 4 -48 2 -76 -6 -42 6 85 29 184 33 450 96 450 106 0 4 8 5
18 3 9 -3 44 2 77 10 81 19 95 19 96 -1z m944 -5 c6 -4 2 -8 -7 -8 -10 0 -18
7 -18 17 0 9 3 12 8 7 4 -5 12 -12 17 -16z m-748 5 c-4 -3 -2 -12 4 -19 7 -8
7 -14 -1 -19 -5 -3 -10 1 -10 9 0 9 -6 16 -12 16 -9 0 -8 4 2 10 17 11 26 13
17 3z m80 -25 c-3 -7 -5 -2 -5 12 0 14 2 19 5 13 2 -7 2 -19 0 -25z m-586 -11
c-10 -9 -11 -8 -5 6 3 10 9 15 12 12 3 -3 0 -11 -7 -18z m1251 -12 c-2 -14 -6
-25 -8 -25 -2 0 -4 11 -4 25 0 14 4 25 9 25 4 0 6 -11 3 -25z m-480 -27 c-6
-6 -7 0 -4 19 5 21 7 23 10 9 2 -10 0 -22 -6 -28z m-2002 10 c17 -11 22 -10
31 2 9 12 10 12 5 -4 -5 -15 -2 -17 14 -13 11 3 18 1 14 -4 -3 -5 -1 -9 5 -9
5 0 12 8 14 18 4 14 5 13 6 -4 1 -16 15 -24 69 -41 37 -12 87 -24 112 -28 25
-3 57 -8 73 -11 l27 -6 -22 -18 c-20 -15 -23 -31 -30 -131 -4 -63 -8 -129 -8
-146 1 -20 -4 -33 -12 -33 -9 0 -8 -3 2 -10 10 -7 11 -10 2 -10 -7 0 -15 7
-18 15 -5 12 -10 13 -20 4 -11 -9 -14 -8 -14 1 0 9 -4 9 -17 -1 -9 -8 -18 -13
-20 -11 -1 1 -12 2 -23 2 -14 0 -20 -7 -21 -22 0 -22 -1 -22 -9 -3 -7 17 -9
17 -9 3 -1 -12 -6 -15 -17 -11 -9 3 -13 12 -10 22 4 9 -5 4 -19 -12 -20 -23
-23 -32 -15 -53 6 -14 6 -23 1 -20 -4 3 -9 -61 -10 -142 -1 -80 -4 -148 -7
-151 -2 -2 -4 111 -4 251 0 196 3 258 13 261 9 4 9 7 0 14 -9 6 -13 44 -14
120 -1 122 -7 137 -68 163 -17 7 -31 16 -31 21 0 12 7 11 30 -3z m1737 -10
c-3 -8 -6 -5 -6 6 -1 11 2 17 5 13 3 -3 4 -12 1 -19z m233 -38 c-13 -70 -13
-103 1 -94 6 3 3 -6 -7 -22 -17 -25 -19 -56 -23 -316 -5 -411 17 -645 67 -731
9 -15 35 -36 57 -47 34 -16 47 -18 78 -9 101 28 126 129 137 574 l8 300 -3
-320 c-3 -335 -11 -418 -48 -495 -30 -64 -31 -68 -8 -40 17 21 21 22 21 7 0
-12 5 -16 13 -11 8 5 9 4 2 -4 -5 -5 -21 -12 -35 -14 -14 -1 -28 -7 -31 -11
-3 -4 -30 -11 -60 -14 -69 -7 -122 14 -144 57 -12 24 -21 30 -36 25 -11 -4
-19 -2 -19 5 0 6 4 9 9 5 5 -3 12 -1 16 5 3 5 -2 11 -12 11 -17 1 -17 2 0 6
11 3 16 11 13 21 -20 66 -29 191 -33 487 -5 333 3 518 28 635 14 67 22 59 9
-10z m561 11 c6 10 9 8 9 -10 0 -20 -2 -21 -15 -11 -8 7 -14 22 -14 34 2 19 2
18 6 -3 4 -19 7 -21 14 -10z m-1167 -47 c3 -8 2 -12 -4 -9 -6 3 -10 10 -10 16
0 14 7 11 14 -7z m623 -6 c-3 -8 -6 -5 -6 6 -1 11 2 17 5 13 3 -3 4 -12 1 -19z
m-420 -20 c-3 -7 -5 -2 -5 12 0 14 2 19 5 13 2 -7 2 -19 0 -25z m-1137 0 c0
-18 -2 -20 -9 -8 -6 8 -7 18 -5 22 9 14 14 9 14 -14z m1343 -9 c-8 -16 -17
-28 -20 -25 -6 5 23 56 31 56 3 0 -2 -14 -11 -31z m757 1 c-4 -3 -10 -12 -13
-20 -3 -8 -6 0 -6 18 -1 28 1 31 13 20 8 -7 10 -15 6 -18z m34 4 c3 -8 2 -12
-4 -9 -6 3 -10 10 -10 16 0 14 7 11 14 -7z m-917 -26 c-3 -8 -6 -5 -6 6 -1 11
2 17 5 13 3 -3 4 -12 1 -19z m-1281 -3 c-21 -16 -32 -13 -21 4 3 6 14 11 23
11 15 -1 15 -2 -2 -15z m2177 -5 c-3 -12 -8 -19 -11 -16 -5 6 5 36 12 36 2 0
2 -9 -1 -20z m149 6 c7 4 8 2 4 -4 -4 -7 -1 -12 6 -12 9 0 9 -3 -2 -10 -15 -9
-29 8 -29 35 1 6 3 4 6 -3 2 -6 10 -9 15 -6z m-2797 -31 c-38 -36 -53 -43 -32
-15 11 14 57 48 66 49 3 1 -12 -15 -34 -34z m1846 -12 c-12 -20 -14 -14 -5 12
4 9 9 14 11 11 3 -2 0 -13 -6 -23z m-478 4 c3 -8 -1 -14 -8 -14 -7 0 -11 6 -8
14 3 7 6 13 8 13 2 0 5 -6 8 -13z m-926 -535 c-1 -97 -2 -15 -2 183 0 198 1
278 2 177 2 -101 2 -263 0 -360z m1060 516 c-3 -8 -6 -5 -6 6 -1 11 2 17 5 13
3 -3 4 -12 1 -19z m1316 -15 c-5 -12 -7 -12 -14 -1 -13 20 -11 28 5 22 8 -3
12 -12 9 -21z m-2343 -15 c0 -19 -16 -5 -17 14 -2 18 0 20 7 8 5 -8 10 -18 10
-22z m1603 17 c-3 -9 -8 -14 -10 -11 -3 3 -2 9 2 15 9 16 15 13 8 -4z m-793
-11 c0 -2 -7 -4 -15 -4 -8 0 -15 4 -15 10 0 5 7 7 15 4 8 -4 15 -8 15 -10z
m91 -7 c-10 -9 -11 -8 -5 6 3 10 9 15 12 12 3 -3 0 -11 -7 -18z m440 -38 c-11
-30 -20 -49 -20 -43 -1 15 30 106 35 101 2 -2 -5 -28 -15 -58z m-1715 28 c8 3
14 0 14 -7 0 -6 -4 -8 -10 -5 -5 3 -10 -1 -10 -9 0 -9 -5 -16 -11 -16 -6 0 -9
6 -6 14 3 7 1 19 -4 25 -6 7 -5 8 2 2 6 -5 18 -7 25 -4z m1364 7 c0 -8 -19
-13 -24 -6 -3 5 1 9 9 9 8 0 15 -2 15 -3z m77 -16 c-3 -8 -6 -5 -6 6 -1 11 2
17 5 13 3 -3 4 -12 1 -19z m-1557 -33 c0 -5 -5 -3 -10 5 -5 8 -10 20 -10 25 0
6 5 3 10 -5 5 -8 10 -19 10 -25z m1317 19 c-3 -3 -12 -4 -19 -1 -8 3 -5 6 6 6
11 1 17 -2 13 -5z m1533 -9 c10 6 4 -35 -6 -44 -4 -3 -4 2 -1 12 4 9 2 17 -3
17 -6 0 -10 8 -9 18 0 10 3 12 6 4 2 -6 9 -10 13 -7z m-2710 -5 c0 -5 -2 -10
-4 -10 -3 0 -8 5 -11 10 -3 6 -1 10 4 10 6 0 11 -4 11 -10z m1160 -30 c0 -5
-4 -10 -10 -10 -5 0 -10 5 -10 10 0 6 5 10 10 10 6 0 10 -4 10 -10z m-1220
-45 c0 -5 -5 -3 -10 5 -5 8 -10 20 -10 25 0 6 5 3 10 -5 5 -8 10 -19 10 -25z
m1428 -262 l-2 -298 -6 290 c-5 278 -4 305 6 305 2 0 3 -134 2 -297z m1254
267 c3 -16 1 -30 -4 -30 -4 0 -8 14 -8 30 0 17 2 30 4 30 2 0 6 -13 8 -30z
m-2737 10 c3 -6 -1 -7 -9 -4 -18 7 -21 14 -7 14 6 0 13 -4 16 -10z m1776 -50
c-7 -36 -9 -39 -10 -15 -1 33 11 85 16 70 1 -6 -1 -30 -6 -55z m1056 18 c-3
-7 -5 -2 -5 12 0 14 2 19 5 13 2 -7 2 -19 0 -25z m-1076 -218 c-6 -103 -8
-117 -9 -60 -2 76 9 223 14 205 2 -6 0 -71 -5 -145z m-1431 120 c5 9 11 8 21
-3 8 -7 20 -12 27 -9 6 2 2 -8 -10 -22 -23 -25 -23 -25 -34 -4 l-11 20 -6 -21
c-7 -27 -33 -27 -40 0 -4 17 -3 19 6 10 15 -15 28 -14 26 2 -1 6 0 19 1 27 1
12 3 12 7 1 4 -10 7 -10 13 -1z m-111 -22 c0 -13 -3 -17 -6 -10 -2 6 -10 9
-16 5 -7 -4 -6 1 2 10 18 22 21 21 20 -5z m1485 3 c14 -15 15 -21 4 -27 -7 -4
-10 -3 -5 1 4 5 0 17 -10 27 -9 10 -14 18 -11 18 3 0 13 -9 22 -19z m1153 -38
c-3 -10 -5 -4 -5 12 0 17 2 24 5 18 2 -7 2 -21 0 -30z m-1882 -869 c-7 -39
-29 -59 -77 -72 -31 -8 -38 -8 -38 4 0 8 10 14 23 14 35 0 65 27 77 68 6 22
11 207 12 457 l3 420 3 -430 c1 -236 0 -444 -3 -461z m-1228 839 c-3 -10 -5
-4 -5 12 0 17 2 24 5 18 2 -7 2 -21 0 -30z m33 5 c0 -18 -2 -20 -9 -8 -6 8 -7
18 -5 22 9 14 14 9 14 -14z m540 3 c0 -5 9 -7 20 -4 15 4 19 2 14 -10 -5 -13
-10 -14 -30 -5 -24 11 -33 28 -14 28 6 0 10 -4 10 -9z m90 -33 c0 -18 -2 -20
-9 -8 -6 8 -7 18 -5 22 9 14 14 9 14 -14z m2447 -15 c-3 -10 -5 -4 -5 12 0 17
2 24 5 18 2 -7 2 -21 0 -30z m-77 7 c0 -11 -2 -20 -4 -20 -2 0 -6 9 -9 20 -3
11 -1 20 4 20 5 0 9 -9 9 -20z m-2396 -44 c-4 -12 -10 -14 -19 -6 -6 5 -15 7
-18 3 -4 -3 -7 -1 -7 6 0 8 7 10 20 6 13 -4 20 -2 20 6 0 7 2 10 5 7 3 -3 3
-13 -1 -22z m2393 -18 c-3 -8 -6 -5 -6 6 -1 11 2 17 5 13 3 -3 4 -12 1 -19z
m31 -4 c4 2 8 -11 9 -30 3 -30 0 -33 -19 -31 -12 2 -24 10 -26 18 -3 11 -1 11
7 -1 9 -13 11 -12 12 5 1 11 2 29 1 40 0 11 2 14 4 7 3 -6 9 -10 12 -8z
m-3061 -66 c-2 -13 -4 -5 -4 17 -1 22 1 32 4 23 2 -10 2 -28 0 -40z m1513 18
c0 -3 -4 -8 -10 -11 -5 -3 -10 -1 -10 4 0 6 5 11 10 11 6 0 10 -2 10 -4z
m1595 -134 c-4 -40 -9 -72 -11 -69 -2 2 -1 46 3 98 4 52 9 83 11 69 2 -13 1
-57 -3 -98z m-1592 -509 c9 -11 15 -22 12 -25 -11 -11 100 14 133 29 82 39
187 251 232 468 16 78 18 84 19 45 2 -75 -74 -313 -130 -408 -10 -19 -16 -39
-13 -45 4 -7 3 -9 -1 -4 -5 4 -17 0 -27 -10 -19 -17 -25 -39 -8 -28 6 3 7 -1
4 -9 -3 -9 -10 -16 -16 -16 -5 0 -6 5 -3 10 11 18 -11 11 -29 -9 -10 -11 -32
-23 -48 -27 -17 -3 -26 -9 -20 -13 5 -3 -23 -6 -63 -6 -41 0 -69 2 -63 6 7 4
7 9 -1 13 -8 5 -10 102 -9 329 l2 322 6 -301 c4 -269 7 -304 23 -321z m410 16
c-7 -7 -8 571 -1 596 1 6 4 -125 5 -289 2 -165 0 -303 -4 -307z m-1926 529
c-3 -8 -6 -5 -6 6 -1 11 2 17 5 13 3 -3 4 -12 1 -19z m613 12 c0 -5 -2 -10 -4
-10 -3 0 -8 5 -11 10 -3 6 -1 10 4 10 6 0 11 -4 11 -10z m1104 -16 c3 -8 2
-12 -4 -9 -6 3 -10 10 -10 16 0 14 7 11 14 -7z m1307 -28 c6 3 13 -4 16 -17 6
-22 7 -22 15 -3 8 18 8 18 5 -1 -2 -11 -9 -19 -15 -17 -7 1 -12 -2 -12 -8 0
-5 5 -10 10 -10 6 0 10 -7 10 -15 0 -8 -7 -15 -16 -15 -14 0 -15 7 -10 43 6
36 5 39 -6 24 -12 -15 -13 -14 -14 15 -1 18 1 25 3 15 2 -9 9 -14 14 -11z
m-2993 -166 c-1 -29 -27 115 -27 150 1 19 7 -3 15 -50 7 -47 13 -92 12 -100z
m632 154 c0 -8 -5 -12 -10 -9 -6 4 -8 11 -5 16 9 14 15 11 15 -7z m-239 -267
c-7 -7 -9 0 -6 19 2 16 5 81 6 144 l3 115 3 -134 c2 -79 0 -138 -6 -144z m906
233 c0 -33 -14 -40 -24 -13 -4 9 -1 19 5 21 7 2 10 8 6 13 -3 5 -1 9 4 9 5 0
9 -13 9 -30z m-259 -297 c0 -164 -3 -284 -4 -268 -7 69 -8 565 -1 565 4 0 6
-134 5 -297z m-438 277 c0 -5 -8 -10 -17 -10 -15 0 -16 2 -3 10 19 12 20 12
20 0z m57 -337 c-1 -65 -3 -14 -3 112 0 127 2 180 3 118 2 -62 2 -165 0 -230z
m2398 267 c-4 -23 -9 -39 -11 -37 -3 2 -2 23 2 46 4 23 9 40 11 37 3 -3 2 -23
-2 -46z m-3025 -4 c0 -26 -6 -18 -14 19 -5 22 -4 26 4 15 5 -8 10 -24 10 -34z
m1848 -6 c-1 -28 -5 -53 -10 -56 -4 -3 -8 -13 -8 -22 0 -15 2 -15 10 -2 8 12
10 11 10 -7 0 -13 -5 -23 -11 -23 -7 0 -23 -12 -37 -27 -23 -25 -23 -27 -6
-40 17 -12 17 -14 -2 -29 -10 -8 -13 -13 -6 -9 6 3 12 1 12 -4 0 -6 -7 -11
-15 -11 -8 0 -15 -7 -15 -16 0 -8 5 -12 10 -9 6 4 10 -7 10 -25 0 -25 4 -31
16 -26 8 3 12 2 9 -4 -12 -19 -26 -10 -41 25 -10 25 -18 33 -30 28 -13 -5 -11
3 7 38 13 24 24 46 24 49 5 24 18 50 26 50 6 0 8 4 5 9 -3 5 3 35 14 66 11 32
20 66 20 77 0 10 2 18 4 18 3 0 4 -23 4 -50z m-862 -42 c-4 -35 -14 -84 -22
-110 -9 -26 -12 -53 -8 -60 4 -7 4 -10 -1 -6 -5 5 -21 -24 -37 -64 -37 -91
-93 -176 -137 -205 -39 -26 -93 -30 -134 -8 -15 8 -25 10 -22 6 3 -5 -5 -7
-17 -3 -19 5 -20 7 -6 16 15 9 15 12 0 43 -9 18 -20 33 -24 33 -5 0 -6 5 -3
10 10 16 22 11 30 -12 l7 -23 8 25 8 25 7 -30 c13 -58 45 -80 106 -76 24 2 86
70 119 130 42 76 85 194 106 289 11 45 21 82 23 82 2 0 1 -28 -3 -62z m1954
58 c0 -3 -4 -8 -10 -11 -5 -3 -10 -1 -10 4 0 6 5 11 10 11 6 0 10 -2 10 -4z
m-2886 -86 c5 -24 4 -30 -3 -20 -5 8 -12 33 -15 55 -8 48 8 19 18 -35z m2886
56 c0 -2 -7 -9 -15 -16 -13 -11 -14 -10 -9 4 5 14 24 23 24 12z m-2951 -76 c1
-13 0 -13 -9 0 -5 8 -9 24 -9 35 l0 20 9 -20 c5 -11 9 -27 9 -35z m2997 -52
l-23 -77 26 -4 c21 -3 19 -4 -9 -6 -19 0 -52 -10 -72 -21 -36 -19 -155 -130
-140 -130 4 0 3 -4 -3 -8 -5 -4 -26 -38 -45 -75 -19 -38 -39 -71 -43 -74 -5
-3 -4 4 2 15 6 11 11 29 10 39 0 13 -3 12 -10 -7 -6 -14 -12 -34 -13 -46 -2
-21 -43 -94 -52 -94 -3 0 -2 10 2 22 10 31 11 128 2 128 -5 0 -8 -9 -8 -21 0
-15 -4 -19 -16 -15 -14 5 -15 4 -4 -9 8 -10 9 -15 2 -15 -6 0 -9 -6 -6 -14 3
-8 12 -12 20 -9 8 3 14 0 14 -6 0 -6 -4 -11 -8 -11 -4 0 -7 -15 -7 -32 0 -23
-10 -46 -32 -75 -18 -23 -33 -45 -33 -49 0 -4 6 1 14 12 13 18 14 16 11 -16
-2 -19 -10 -51 -19 -70 l-15 -35 -1 32 c0 32 -14 51 -25 34 -3 -6 -20 -20 -38
-31 -27 -18 -26 -16 8 13 21 20 43 33 47 31 4 -3 8 -1 8 5 0 5 -5 11 -11 13
-7 2 -7 18 1 51 7 25 9 54 6 63 -5 12 -2 15 10 10 8 -3 20 -6 25 -6 4 0 7 -12
5 -27 -2 -16 -1 -21 1 -13 3 8 9 19 14 25 15 15 10 25 -12 25 -12 0 -17 4 -14
11 4 6 13 8 21 5 8 -3 14 -2 14 3 0 5 -9 11 -20 14 -11 3 -20 0 -20 -6 0 -6
-2 -8 -5 -5 -8 8 6 39 15 33 4 -2 5 7 2 20 -3 17 4 34 22 55 14 18 26 36 26
41 0 5 6 9 13 9 8 0 13 -8 13 -17 -1 -10 4 -20 9 -22 13 -5 59 80 47 88 -5 3
-1 19 8 34 12 20 20 25 25 17 4 -7 2 -16 -5 -20 -7 -4 -10 -14 -8 -21 5 -14
58 80 58 102 0 7 7 17 16 23 9 7 13 18 8 30 -5 14 -9 15 -15 4 -6 -10 -11 -10
-20 -1 -9 9 -9 16 1 27 7 9 17 13 23 9 6 -4 8 0 4 10 -3 10 -2 17 3 17 6 0 10
-13 10 -29 0 -32 24 -48 46 -30 7 6 35 9 61 7 l48 -3 25 90 c14 49 26 83 28
75 1 -8 -8 -50 -22 -92z m-65 64 c0 -14 2 -13 9 3 l9 20 0 -20 c1 -17 3 -17
11 -5 8 13 10 12 10 -2 0 -10 -5 -18 -11 -18 -6 0 -8 -7 -5 -16 4 -11 1 -14
-12 -12 -9 2 -17 13 -18 25 -1 12 -4 29 -7 38 -4 9 -3 14 3 10 6 -3 10 -14 11
-23z m-1715 -12 c8 0 14 5 14 12 0 16 15 0 34 -36 14 -28 14 -31 -9 -52 -24
-23 -34 -41 -16 -30 5 4 4 -7 -2 -24 -6 -17 -17 -28 -24 -26 -6 3 -14 -3 -16
-12 -3 -9 -5 9 -6 41 -1 64 4 72 18 25 l9 -33 1 32 c1 17 7 34 14 36 6 3 0 6
-15 6 -27 1 -28 3 -27 49 1 26 3 39 6 30 2 -10 11 -18 19 -18z m950 -32 c-9
-12 -16 -19 -16 -15 0 11 24 47 28 42 2 -2 -3 -14 -12 -27z m-2147 -38 c1 -13
0 -13 -9 0 -5 8 -9 24 -9 35 l0 20 9 -20 c5 -11 9 -27 9 -35z m31 19 c0 -6 -4
-7 -10 -4 -5 3 -10 11 -10 16 0 6 5 7 10 4 6 -3 10 -11 10 -16z m1344 6 c-4
-8 -1 -15 5 -15 6 0 10 -12 10 -27 -2 -24 -2 -25 -6 -5 -2 12 -11 22 -19 22
-17 0 -18 12 -2 28 16 16 19 15 12 -3z m466 -10 c0 -8 -9 -15 -20 -15 -20 0
-26 11 -13 23 12 13 33 7 33 -8z m-1480 -62 c-1 -39 -4 -53 -9 -43 -5 8 -8 33
-6 55 4 47 4 45 10 45 3 0 5 -26 5 -57z m920 31 c0 -2 -7 -4 -15 -4 -8 0 -15
4 -15 10 0 5 7 7 15 4 8 -4 15 -8 15 -10z m560 -17 c0 -16 -6 -23 -22 -24 -21
-2 -22 -1 -5 11 9 7 17 18 17 25 0 6 2 11 5 11 3 0 5 -10 5 -23z m320 -2 c13
-14 21 -25 18 -25 -2 0 -15 11 -28 25 -13 14 -21 25 -18 25 2 0 15 -11 28 -25z
m675 7 c-3 -3 -11 0 -18 7 -9 10 -8 11 6 5 10 -3 15 -9 12 -12z m-2828 -14
c-3 -8 -6 -5 -6 6 -1 11 2 17 5 13 3 -3 4 -12 1 -19z m77 7 c3 -8 1 -15 -4
-15 -6 0 -10 5 -10 11 0 6 -7 9 -15 6 -8 -4 -16 -3 -19 1 -2 4 6 9 19 10 13 1
26 -5 29 -13z m1191 -5 c3 -5 1 -10 -4 -10 -6 0 -11 5 -11 10 0 6 2 10 4 10 3
0 8 -4 11 -10z m57 -75 c3 -14 1 -25 -3 -25 -5 0 -9 5 -9 11 0 5 -4 8 -9 4 -5
-3 -12 -1 -16 5 -3 5 1 10 9 10 21 0 20 9 -1 27 -16 13 -16 13 3 4 12 -6 24
-22 26 -36z m1418 21 c0 -8 -10 -27 -23 -41 -22 -26 -23 -26 -23 -6 0 13 5 20
13 17 8 -3 15 5 19 19 7 28 14 33 14 11z m-949 -23 c-8 -15 -10 -15 -11 -2 0
17 10 32 18 25 2 -3 -1 -13 -7 -23z m-67 -8 c3 -9 0 -15 -9 -15 -8 0 -15 7
-15 15 0 8 4 15 9 15 5 0 11 -7 15 -15z m-1680 -21 c3 -8 2 -12 -4 -9 -6 3
-10 10 -10 16 0 14 7 11 14 -7z m1123 -6 c-3 -8 -6 -5 -6 6 -1 11 2 17 5 13 3
-3 4 -12 1 -19z m-1077 -9 c0 -6 -4 -7 -10 -4 -5 3 -10 11 -10 16 0 6 5 7 10
4 6 -3 10 -11 10 -16z m2582 3 c3 -11 0 -19 -8 -19 -16 0 -16 0 -8 21 8 21 11
20 16 -2z m-2332 -63 c-14 -34 -50 -47 -86 -30 -35 16 -30 31 6 18 37 -14 64
-1 68 34 5 42 15 57 20 31 2 -13 -2 -37 -8 -53z m237 39 c-3 -7 -5 -2 -5 12 0
14 2 19 5 13 2 -7 2 -19 0 -25z m768 11 c-4 -5 -16 -8 -28 -8 -17 1 -18 2 -4
6 9 2 17 9 17 14 0 6 5 7 10 4 6 -4 8 -11 5 -16z m357 9 c-8 -8 -9 -15 -1 -25
9 -10 8 -13 -5 -13 -19 0 -22 36 -3 43 20 9 22 8 9 -5z m-1495 -270 c56 -81
209 -243 308 -327 l50 -43 -61 45 c-143 106 -334 337 -420 509 -52 102 -40 96
15 -9 27 -51 76 -130 108 -175z m990 240 c-3 -8 -6 -5 -6 6 -1 11 2 17 5 13 3
-3 4 -12 1 -19z m63 -6 c0 -4 -9 -13 -20 -20 -23 -14 -26 -8 -7 13 13 16 27
19 27 7z m957 -14 c-3 -8 -6 -5 -6 6 -1 11 2 17 5 13 3 -3 4 -12 1 -19z
m-2049 -27 c30 -53 27 -66 -3 -16 -13 22 -32 43 -42 47 -16 6 -16 7 3 7 14 1
27 -12 42 -38z m1635 32 c-7 -2 -19 -2 -25 0 -7 3 -2 5 12 5 14 0 19 -2 13 -5z
m251 -25 c2 -7 11 -34 20 -60 16 -43 19 -46 48 -42 17 2 54 11 82 21 28 10 56
18 61 19 6 1 13 3 18 4 4 1 10 3 15 4 4 1 29 8 55 15 42 12 50 12 58 0 6 -10
1 -16 -21 -22 -36 -9 -40 -21 -5 -15 14 3 25 2 25 -3 0 -4 -43 -22 -96 -39
-92 -31 -96 -31 -110 -14 -9 11 -13 13 -9 7 3 -7 1 -13 -5 -13 -6 0 -8 -6 -5
-12 4 -7 -3 -2 -14 11 -23 25 -27 21 -11 -10 6 -10 7 -19 2 -19 -5 0 -14 10
-20 23 -9 18 -11 19 -11 4 -1 -10 -5 -15 -11 -12 -5 3 -10 1 -10 -4 0 -6 8
-11 17 -11 12 0 14 -3 6 -11 -8 -8 -6 -26 8 -67 26 -76 24 -85 -10 -32 -15 25
-35 51 -44 59 -9 7 -14 17 -11 22 7 13 -20 11 -32 -1 -6 -6 -76 -28 -155 -49
-79 -21 -179 -50 -222 -65 -47 -15 -98 -25 -131 -25 -30 1 -59 -2 -64 -5 -6
-3 -12 1 -16 9 -3 8 -2 14 2 13 18 -5 92 13 92 23 0 5 -6 7 -12 4 -7 -4 -4 1
7 10 11 9 30 18 43 22 16 4 21 10 17 21 -4 12 -3 12 9 3 8 -6 18 -11 22 -10
27 5 36 -1 24 -16 -7 -8 -11 -15 -9 -15 12 0 362 110 367 115 4 3 0 10 -8 15
-13 9 -7 14 12 11 10 -1 28 59 28 95 0 19 -4 34 -10 34 -5 0 -10 5 -10 10 0
14 20 12 24 -2z m597 -35 c-8 -15 -10 -15 -11 -2 0 17 10 32 18 25 2 -3 -1
-13 -7 -23z m-61 13 c0 -2 -9 -6 -20 -9 -11 -3 -18 -1 -14 4 5 9 34 13 34 5z
m-1133 -22 c-3 -3 -12 -4 -19 -1 -8 3 -5 6 6 6 11 1 17 -2 13 -5z m-1242 -96
c6 -5 6 -8 -2 -8 -6 0 -21 13 -32 29 -28 39 -27 51 1 15 12 -16 27 -32 33 -36z
m1765 12 c0 -5 -2 -10 -4 -10 -3 0 -8 5 -11 10 -3 6 -1 10 4 10 6 0 11 -4 11
-10z m-1711 -40 c27 -33 30 -44 20 -56 -9 -11 -9 -18 3 -32 29 -33 30 -47 2
-19 -24 22 -27 30 -17 45 9 15 7 23 -8 43 -23 28 -41 59 -36 59 2 0 18 -18 36
-40z m1676 5 c-27 -7 -61 -13 -75 -13 -14 0 -2 6 25 13 28 7 61 13 75 13 14 0
3 -6 -25 -13z m-122 -22 c-7 -2 -19 -2 -25 0 -7 3 -2 5 12 5 14 0 19 -2 13 -5z
m-494 -20 c3 -3 -23 -2 -59 1 -49 5 -74 3 -102 -8 -52 -22 -61 -19 -13 5 31
14 54 17 104 14 36 -3 67 -8 70 -12z m411 6 c-67 -13 -370 -23 -370 -13 0 5
53 9 118 8 64 0 142 2 172 6 30 4 71 7 90 7 32 0 31 0 -10 -8z m307 -41 c-3
-8 -6 -5 -6 6 -1 11 2 17 5 13 3 -3 4 -12 1 -19z m-972 -3 c-22 -8 -49 -14
-60 -14 -17 -1 -17 -3 -5 -11 23 -15 6 -12 -26 5 -24 12 -25 15 -9 16 42 1 98
9 103 14 3 3 12 5 21 4 9 -1 -2 -7 -24 -14z m-102 -32 c23 -15 71 -37 107 -50
37 -13 50 -21 30 -17 -42 8 -174 67 -184 83 -11 17 1 13 47 -16z m-555 -90
c-9 -11 -5 -20 17 -43 16 -17 24 -30 19 -30 -21 0 -56 48 -50 68 4 11 2 23 -3
26 -6 4 -20 21 -32 39 -21 31 -20 30 19 -7 33 -31 39 -43 30 -53z m793 69 c-7
-2 -18 1 -23 6 -8 8 -4 9 13 5 13 -4 18 -8 10 -11z m19 -27 c32 -1 58 2 62 9
5 7 8 4 8 -6 0 -15 -9 -18 -49 -18 -62 0 -111 10 -111 22 0 6 8 7 18 3 9 -4
42 -8 72 -10z m113 -2 c-3 -7 -11 -13 -19 -13 -7 0 -11 6 -8 13 3 8 11 14 18
14 8 0 12 -6 9 -14z m62 -2 c-3 -3 -18 -6 -33 -8 -22 -2 -23 -1 -7 6 22 9 48
10 40 2z m-218 -27 c-3 -3 -12 -4 -19 -1 -8 3 -5 6 6 6 11 1 17 -2 13 -5z m68
-14 c-3 -5 -12 -10 -20 -10 -8 0 -17 5 -20 10 -4 6 5 10 20 10 15 0 24 -4 20
-10z m1045 -2 c0 -4 6 -8 13 -8 7 0 13 -9 13 -20 0 -24 -12 -26 -32 -5 -8 8
-21 12 -28 9 -8 -3 -17 0 -21 6 -4 6 -1 9 7 8 7 -2 12 2 11 7 -1 6 7 11 18 11
10 0 19 -4 19 -8z m-1597 -31 c4 3 7 1 7 -5 0 -6 7 -12 15 -14 11 -2 12 -7 4
-18 -8 -11 -12 -12 -16 -2 -2 6 -19 13 -36 13 -18 1 -24 3 -15 6 11 3 15 10
11 21 -6 14 -4 15 9 5 8 -7 18 -10 21 -6z m1587 -29 c0 -19 -1 -20 -12 -6 -7
9 -22 18 -33 21 -13 3 -8 5 13 6 27 1 32 -3 32 -21z m-1753 -18 c18 -16 30
-30 25 -30 -11 0 -79 59 -68 60 4 0 24 -13 43 -30z m1733 10 c0 -5 -4 -10 -10
-10 -5 0 -10 5 -10 10 0 6 5 10 10 10 6 0 10 -4 10 -10z m-1540 -41 c0 -6 -4
-7 -10 -4 -5 3 -10 11 -10 16 0 6 5 7 10 4 6 -3 10 -11 10 -16z m1780 18 c0
-8 -135 -110 -200 -153 -86 -55 -232 -126 -331 -159 -109 -37 -108 -29 1 10
52 19 132 53 178 76 95 46 275 164 311 203 21 22 41 33 41 23z m-1813 -29 c-3
-8 -6 -5 -6 6 -1 11 2 17 5 13 3 -3 4 -12 1 -19z m1733 8 c0 -3 -14 -14 -30
-26 -24 -17 -34 -19 -45 -10 -11 9 -20 8 -42 -7 -38 -27 -53 -35 -53 -30 0 2
18 17 41 33 33 23 44 26 59 16 14 -9 21 -7 36 9 16 17 34 25 34 15z m-1841
-54 l26 -24 -32 18 c-31 19 -34 22 -32 47 0 8 2 7 6 -2 3 -8 18 -25 32 -39z
m1361 19 c16 -30 12 -36 -10 -16 -11 10 -23 16 -25 13 -8 -7 26 -91 39 -100 6
-4 -2 -11 -17 -17 -35 -13 -40 -14 -32 -2 5 8 -20 87 -32 101 -3 3 -10 -3 -18
-13 -9 -13 -14 -14 -18 -5 -2 7 2 19 9 26 8 7 14 11 14 8 0 -3 15 1 33 9 42
19 44 18 57 -4z m-914 -11 c8 -8 7 -25 -1 -56 -16 -65 -44 -80 -85 -44 -16 14
-20 25 -14 37 7 16 8 16 11 -4 6 -30 30 -50 45 -35 8 8 4 19 -16 42 -14 17
-26 35 -26 39 0 27 65 42 86 21z m-321 -44 c11 -8 16 -16 12 -16 -13 0 -87 44
-87 53 0 8 44 -13 75 -37z m-99 -27 c3 -6 -5 -3 -20 6 -14 10 -26 19 -26 22 0
7 39 -17 46 -28z m587 -5 c-3 -17 0 -34 6 -38 11 -7 -6 -56 -19 -56 -11 0 -20
38 -20 82 0 20 -6 39 -12 42 -7 2 1 4 19 3 29 -1 31 -3 26 -33z m527 27 c0 -5
3 -18 6 -28 5 -17 5 -17 -6 0 -13 20 -50 23 -50 4 0 -21 12 -28 27 -16 8 8 13
8 13 1 0 -6 3 -19 7 -29 6 -15 5 -16 -9 -5 -9 7 -19 9 -22 4 -6 -11 4 -52 13
-52 14 0 31 24 32 44 0 15 3 13 10 -8 4 -17 7 -31 6 -32 -8 -8 -105 -19 -101
-12 3 5 3 31 -1 58 -5 36 -11 50 -23 50 -27 0 -6 10 39 19 61 12 59 12 59 2z
m-460 -13 c0 -4 -8 -8 -17 -8 -11 0 -14 -3 -7 -8 6 -4 14 -16 18 -27 6 -16 9
-17 17 -5 6 8 9 11 7 5 -3 -5 -10 -25 -17 -42 -7 -18 -19 -33 -27 -33 -9 0
-14 12 -15 33 0 17 -2 47 -3 64 -3 29 -1 32 20 31 13 -1 24 -6 24 -10z m40 -7
c0 -17 -18 -21 -24 -6 -3 9 0 15 9 15 8 0 15 -4 15 -9z m960 5 c0 -2 -12 -11
-27 -20 l-28 -17 24 20 c23 21 31 25 31 17z m-1518 -42 c16 -8 28 -18 25 -21
-10 -9 -67 31 -66 47 0 10 2 11 6 2 3 -7 18 -19 35 -28z m765 14 c2 -20 1 -21
-8 -5 -6 9 -19 17 -29 17 -21 0 -25 -16 -11 -39 7 -11 11 -10 20 5 9 17 10 16
11 -8 0 -21 -4 -25 -19 -21 -15 4 -18 0 -14 -21 6 -30 27 -34 42 -8 9 15 10
15 11 -5 0 -21 -4 -23 -52 -22 -29 0 -48 3 -43 5 7 3 9 27 5 64 l-6 60 46 0
c40 0 46 -3 47 -22z m683 7 c8 -9 8 -15 2 -15 -6 0 -12 5 -14 11 -3 8 -18 4
-46 -10 -57 -29 -68 -26 -12 4 54 29 54 29 70 10z m-1520 -25 c8 -5 11 -10 5
-10 -5 0 -21 10 -35 21 -24 20 -5 13 30 -11z m180 -10 c45 -24 28 -24 -25 0
-22 10 -33 19 -25 19 8 0 31 -8 50 -19z m-105 -30 c3 -6 -1 -7 -9 -4 -18 7
-21 14 -7 14 6 0 13 -4 16 -10z m1270 -20 c10 -11 13 -20 8 -20 -6 0 -14 7
-17 16 -4 10 -13 13 -28 9 -18 -5 -20 -4 -8 4 21 15 24 14 45 -9z m61 5 c-11
-8 -25 -15 -30 -15 -6 1 0 7 14 15 32 19 40 18 16 0z m-1131 -37 c5 -5 -6 -3
-25 3 -19 6 -39 16 -45 21 -5 5 6 3 25 -3 19 -6 39 -16 45 -21z m88 16 c15 -4
27 -10 27 -15 0 -4 -21 -1 -47 8 -52 17 -74 30 -33 19 14 -3 37 -9 53 -12z
m907 6 c-8 -5 -19 -10 -25 -10 -5 0 -3 5 5 10 8 5 20 10 25 10 6 0 3 -5 -5
-10z m-1100 -15 c14 -8 21 -14 15 -14 -5 0 -21 6 -35 14 -14 8 -20 14 -15 14
6 0 21 -6 35 -14z m60 -25 c8 -5 11 -10 5 -10 -5 0 -17 5 -25 10 -8 5 -10 10
-5 10 6 0 17 -5 25 -10z m927 -5 c7 -12 16 -13 43 -5 46 13 50 5 4 -10 -33
-11 -39 -10 -50 4 -9 13 -22 16 -51 12 -30 -4 -32 -4 -13 3 38 14 58 12 67 -4z
m-647 1 c0 -2 -9 -6 -20 -9 -11 -3 -18 -1 -14 4 5 9 34 13 34 5z m53 -13 c-7
-2 -21 -2 -30 0 -10 3 -4 5 12 5 17 0 24 -2 18 -5z m-113 -13 c20 -6 21 -8 5
-8 -11 0 -31 4 -45 8 -20 6 -21 8 -5 8 11 0 31 -4 45 -8z m516 -5 c4 -9 20
-15 43 -16 l36 -1 -35 -8 c-38 -9 -50 -6 -50 15 0 7 -10 16 -22 18 l-23 4 23
2 c12 0 25 -6 28 -14z m-218 -2 c-16 -2 -40 -2 -55 0 -16 2 -3 4 27 4 30 0 43
-2 28 -4z m155 0 c-7 -2 -21 -2 -30 0 -10 3 -4 5 12 5 17 0 24 -2 18 -5z
m-498 -17 c28 -8 41 -14 30 -14 -21 0 -107 25 -90 27 6 0 33 -6 60 -13z m255
-12 c0 -2 -18 -4 -40 -4 -22 0 -40 3 -40 8 0 4 18 6 40 4 22 -2 40 -6 40 -8z
m155 -7 c27 -4 27 -4 -7 -6 -30 -1 -38 3 -38 17 0 11 3 13 8 5 4 -6 21 -13 37
-16z m370 13 c-11 -5 -29 -8 -40 -8 -16 0 -15 2 5 8 34 11 60 11 35 0z m-660
-20 c27 -7 27 -8 5 -8 -14 0 -36 4 -50 8 -20 6 -21 8 -5 8 11 0 34 -4 50 -8z
m593 5 c-2 -3 -49 -12 -104 -20 -101 -15 -318 -19 -409 -7 -27 4 49 7 170 7
128 1 237 5 260 12 42 12 92 16 83 8z"/>
<path d="M1855 3290 c3 -5 8 -10 11 -10 2 0 4 5 4 10 0 6 -5 10 -11 10 -5 0
-7 -4 -4 -10z"/>
<path d="M1206 3172 c-3 -4 4 -9 15 -9 23 -2 25 3 4 10 -8 4 -16 3 -19 -1z"/>
<path d="M2560 3040 c0 -5 5 -10 11 -10 5 0 7 5 4 10 -3 6 -8 10 -11 10 -2 0
-4 -4 -4 -10z"/>
<path d="M2810 2920 c6 -11 13 -20 16 -20 2 0 0 9 -6 20 -6 11 -13 20 -16 20
-2 0 0 -9 6 -20z"/>
<path d="M2800 2890 c0 -5 5 -10 11 -10 5 0 7 5 4 10 -3 6 -8 10 -11 10 -2 0
-4 -4 -4 -10z"/>
<path d="M1990 2871 c0 -5 5 -13 10 -16 6 -3 10 -2 10 4 0 5 -4 13 -10 16 -5
3 -10 2 -10 -4z"/>
<path d="M1535 2655 c-40 -19 -16 -19 26 0 19 8 27 14 19 14 -8 0 -28 -7 -45
-14z"/>
<path d="M2907 2800 c3 -11 9 -20 13 -20 5 0 6 9 3 20 -3 11 -9 20 -13 20 -5
0 -6 -9 -3 -20z"/>
<path d="M2550 2465 c-8 -9 -8 -15 -2 -15 12 0 26 19 19 26 -2 2 -10 -2 -17
-11z"/>
<path d="M2540 1673 c0 -5 5 -15 10 -23 8 -12 10 -11 10 8 0 12 -4 22 -10 22
-5 0 -10 -3 -10 -7z"/>
<path d="M2469 1608 c-1 -7 -2 -22 -1 -33 0 -11 -7 -24 -15 -31 -14 -9 -14
-11 1 -11 9 0 16 4 16 8 0 4 7 6 16 5 24 -2 26 35 3 57 -13 12 -19 14 -20 5z"/>
<path d="M2405 1570 c-8 -12 3 -50 15 -50 4 0 10 9 13 20 6 22 -17 48 -28 30z"/>
<path d="M2460 1500 c20 -13 33 -13 25 0 -3 6 -14 10 -23 10 -15 0 -15 -2 -2
-10z"/>
<path d="M2420 1490 c0 -5 5 -10 11 -10 5 0 7 5 4 10 -3 6 -8 10 -11 10 -2 0
-4 -4 -4 -10z"/>
<path d="M2430 1459 c0 -4 7 -12 15 -19 12 -10 15 -10 15 1 0 11 2 11 10 -1 9
-14 14 -2 8 17 -4 9 -48 11 -48 2z"/>
<path d="M3060 2440 c0 -5 5 -10 11 -10 5 0 7 5 4 10 -3 6 -8 10 -11 10 -2 0
-4 -4 -4 -10z"/>
<path d="M3060 2415 c0 -2 10 -10 23 -16 20 -11 21 -11 8 4 -13 16 -31 23 -31
12z"/>
<path d="M3147 2280 c-3 -11 -1 -23 4 -26 5 -3 9 6 9 20 0 31 -6 34 -13 6z"/>
<path d="M3058 1962 c-10 -2 -18 -8 -18 -13 0 -11 11 -11 30 1 18 11 11 18
-12 12z"/>
<path d="M3217 1905 c3 -38 7 -72 9 -74 8 -8 2 95 -6 119 -5 15 -6 -2 -3 -45z"/>
<path d="M3155 1920 c3 -5 8 -10 11 -10 2 0 4 5 4 10 0 6 -5 10 -11 10 -5 0
-7 -4 -4 -10z"/>
<path d="M3085 1900 c-3 -5 -2 -17 3 -26 8 -14 10 -12 14 10 5 26 -5 35 -17
16z"/>
<path d="M3098 1805 c-3 -14 -1 -28 4 -32 14 -8 29 19 18 33 -6 6 -7 14 -3 17
3 4 2 7 -4 7 -6 0 -13 -11 -15 -25z"/>
<path d="M3131 1764 c0 -11 3 -14 6 -6 3 7 2 16 -1 19 -3 4 -6 -2 -5 -13z"/>
<path d="M3175 1747 c-4 -10 -5 -21 -1 -24 10 -10 18 4 13 24 -4 17 -4 17 -12
0z"/>
<path d="M3136 1701 c-4 -7 -5 -15 -2 -18 9 -9 19 4 14 18 -4 11 -6 11 -12 0z"/>
<path d="M3140 1631 c0 -6 4 -11 9 -11 5 0 12 -8 14 -17 4 -15 5 -15 6 -2 0 9
-6 22 -14 29 -10 9 -15 9 -15 1z"/>
<path d="M3097 1598 c4 -19 3 -20 -6 -8 -9 12 -11 10 -11 -12 0 -18 5 -28 15
-28 10 0 15 10 15 28 0 21 2 24 10 12 8 -13 10 -13 10 1 0 9 -7 20 -16 23 -22
9 -23 8 -17 -16z"/>
<path d="M3017 1543 c-5 -7 -5 -17 -2 -23 3 -5 1 -10 -5 -10 -6 0 -9 -4 -6 -9
4 -5 0 -11 -6 -14 -7 -2 -10 -8 -6 -11 10 -11 40 40 36 61 -2 13 -6 15 -11 6z"/>
<path d="M3090 1530 c-8 -5 -11 -12 -7 -16 4 -4 15 0 24 9 18 18 8 23 -17 7z"/>
<path d="M3140 1530 c0 -5 7 -10 16 -10 8 0 12 5 9 10 -3 6 -10 10 -16 10 -5
0 -9 -4 -9 -10z"/>
<path d="M3050 1490 c-12 -7 -10 -9 7 -7 12 0 19 5 17 9 -6 10 -6 10 -24 -2z"/>
<path d="M3080 1461 c0 -5 5 -13 10 -16 6 -3 10 -2 10 4 0 5 -4 13 -10 16 -5
3 -10 2 -10 -4z"/>
<path d="M3014 1439 c-4 -8 -3 -9 4 -5 21 13 34 -5 15 -20 -16 -13 -16 -13 7
-5 14 4 25 15 25 22 0 18 -41 24 -51 8z"/>
<path d="M3100 1430 c-8 -5 -12 -12 -9 -15 4 -3 12 1 19 10 14 17 11 19 -10 5z"/>
<path d="M3035 1391 c-3 -2 -5 -9 -5 -14 0 -6 3 -7 6 -4 4 3 15 2 25 -4 15 -8
17 -6 12 7 -5 13 -3 15 7 9 8 -5 11 -4 6 3 -6 10 -42 13 -51 3z"/>
<path d="M3112 1366 c7 -8 15 -12 17 -11 5 6 -10 25 -20 25 -5 0 -4 -6 3 -14z"/>
<path d="M2991 1344 c0 -11 3 -14 6 -6 3 7 2 16 -1 19 -3 4 -6 -2 -5 -13z"/>
<path d="M3031 1334 c0 -11 3 -14 6 -6 3 7 2 16 -1 19 -3 4 -6 -2 -5 -13z"/>
<path d="M3050 1338 c0 -14 18 -17 28 -5 8 10 6 13 -9 13 -10 0 -19 -4 -19 -8z"/>
<path d="M3000 1320 c-9 -6 -10 -10 -3 -10 6 0 15 5 18 10 8 12 4 12 -15 0z"/>
<path d="M2178 2493 c7 -3 16 -2 19 1 4 3 -2 6 -13 5 -11 0 -14 -3 -6 -6z"/>
<path d="M2128 2483 c6 -2 18 -2 25 0 6 3 1 5 -13 5 -14 0 -19 -2 -12 -5z"/>
<path d="M2025 2465 c-27 -7 -41 -13 -30 -14 11 0 43 6 70 13 63 18 28 18 -40
1z"/>
<path d="M1723 2393 c9 -2 23 -2 30 0 6 3 -1 5 -18 5 -16 0 -22 -2 -12 -5z"/>
<path d="M1628 2373 c7 -3 16 -2 19 1 4 3 -2 6 -13 5 -11 0 -14 -3 -6 -6z"/>
<path d="M1616 1804 c-6 -16 2 -18 22 -5 11 7 11 9 -1 14 -9 3 -18 -1 -21 -9z"/>
<path d="M1856 1790 c-11 -3 -15 -9 -10 -13 10 -6 42 9 34 16 -3 3 -14 1 -24
-3z"/>
<path d="M1580 1746 c0 -14 5 -26 10 -26 6 0 10 9 10 19 0 11 -4 23 -10 26 -6
4 -10 -5 -10 -19z"/>
<path d="M1655 1750 c-4 -6 -11 -8 -16 -5 -5 4 -9 0 -9 -9 0 -8 -6 -17 -12
-19 -8 -3 -6 -6 5 -6 9 -1 17 -5 17 -11 0 -5 4 -10 9 -10 5 0 11 16 13 35 4
37 3 41 -7 25z"/>
<path d="M1996 1722 c-2 -4 -1 -14 5 -22 7 -12 9 -10 9 8 0 23 -5 28 -14 14z"/>
<path d="M1680 1683 c0 -5 5 -15 10 -23 8 -12 10 -11 10 8 0 12 -4 22 -10 22
-5 0 -10 -3 -10 -7z"/>
<path d="M1600 1665 c0 -8 4 -15 10 -15 5 0 7 7 4 15 -4 8 -8 15 -10 15 -2 0
-4 -7 -4 -15z"/>
<path d="M1720 1659 c0 -5 5 -7 10 -4 6 3 10 8 10 11 0 2 -4 4 -10 4 -5 0 -10
-5 -10 -11z"/>
<path d="M1660 1630 c0 -11 4 -20 8 -20 4 0 8 9 8 20 0 11 -4 20 -8 20 -4 0
-8 -9 -8 -20z"/>
<path d="M1714 1625 c2 -11 -2 -27 -8 -35 -9 -13 -9 -13 6 -2 9 8 21 11 26 8
5 -3 9 1 9 9 0 8 -3 13 -5 10 -3 -3 -11 3 -18 13 -12 16 -13 16 -10 -3z"/>
<path d="M1725 1530 c-3 -5 -1 -10 4 -10 6 0 11 5 11 10 0 6 -2 10 -4 10 -3 0
-8 -4 -11 -10z"/>
<path d="M1677 1394 c-8 -8 1 -24 14 -24 5 0 9 7 9 15 0 15 -12 20 -23 9z"/>
<path d="M793 2349 c9 -14 15 -15 31 -7 12 6 22 12 24 13 2 2 -12 4 -31 7 -31
3 -33 2 -24 -13z"/>
<path d="M890 2340 c0 -6 7 -10 15 -10 8 0 15 2 15 4 0 2 -7 6 -15 10 -8 3
-15 1 -15 -4z"/>
<path d="M850 2270 c0 -5 5 -10 10 -10 6 0 10 5 10 10 0 6 -4 10 -10 10 -5 0
-10 -4 -10 -10z"/>
<path d="M880 2102 c0 -4 -10 -12 -22 -17 -17 -7 -23 -18 -22 -37 1 -16 -3
-28 -7 -28 -5 0 -9 -5 -9 -11 0 -8 5 -8 15 1 8 7 15 9 15 5 0 -4 6 -3 13 2 6
6 20 13 31 17 13 4 17 2 13 -8 -5 -11 0 -11 24 2 26 15 27 18 12 29 -11 8 -20
9 -28 3 -7 -5 -16 -6 -20 -2 -5 4 -5 1 -1 -5 4 -7 3 -13 -3 -13 -13 0 -22 15
-14 24 8 8 15 46 8 46 -3 0 -5 -3 -5 -8z m-14 -38 c-3 -9 -6 -21 -7 -27 0 -7
-4 -3 -8 8 -9 22 -5 35 11 35 5 0 7 -7 4 -16z"/>
<path d="M3381 1744 c0 -11 3 -14 6 -6 3 7 2 16 -1 19 -3 4 -6 -2 -5 -13z"/>
<path d="M1580 1344 c0 -8 8 -11 21 -9 32 6 33 12 4 17 -16 4 -25 1 -25 -8z"/>
<path d="M2740 990 c0 -6 -4 -9 -9 -5 -5 3 -12 1 -16 -5 -8 -12 15 -13 34 -1
9 6 10 11 2 15 -6 4 -11 2 -11 -4z"/>
<path d="M2680 978 c0 -10 -5 -17 -11 -15 -6 1 -14 -4 -16 -10 -6 -17 15 -16
32 0 8 9 10 19 4 28 -7 11 -9 11 -9 -3z"/>
<path d="M1400 532 c0 -5 9 -17 20 -27 20 -18 25 -11 14 19 -6 17 -34 23 -34
8z"/>
<path d="M2614 3201 c3 -5 16 -11 28 -14 22 -6 22 -5 4 8 -22 17 -40 20 -32 6z"/>
<path d="M2720 3146 c0 -3 14 -12 30 -21 17 -9 30 -13 30 -11 0 3 -13 12 -30
21 -16 9 -30 13 -30 11z"/>
<path d="M2840 3067 c0 -3 12 -12 26 -22 15 -9 23 -12 20 -6 -7 11 -46 35 -46
28z"/>
<path d="M3010 2890 c-8 -5 -11 -12 -7 -16 4 -4 15 0 24 9 18 18 8 23 -17 7z"/>
<path d="M3050 2886 c0 -2 8 -10 18 -17 15 -13 16 -12 3 4 -13 16 -21 21 -21
13z"/>
<path d="M3339 2383 c-10 -11 -10 -14 -1 -9 8 5 12 0 12 -13 0 -12 4 -21 8
-21 5 0 7 14 4 30 -5 35 -5 35 -23 13z"/>
</g>
</svg>
